<svg id="_x33_0" enable-background="new 0 0 64 64" height="512" viewBox="0 0 64 64" width="512" xmlns="http://www.w3.org/2000/svg"><g><g><g><path d="m30 8.88c0 .74-.12 1.48-.35 2.18l-1.65 4.94h-2v-2.17c0-.53-.21-1.04-.59-1.42l-2.41-2.41h-9l-3.2 2.4c-.5.38-.8.97-.8 1.6v2h-2l-1.11-2.21c-.58-1.18-.89-2.47-.89-3.79 0-1.1.45-2.1 1.17-2.83.73-.72 1.73-1.17 2.83-1.17.94-1.26 2.16-2.26 3.53-2.94 1.37-.69 2.89-1.06 4.47-1.06h5.12c3.8 0 6.88 3.08 6.88 6.88z" fill="#b27946"/></g><g><path d="m30.72 37.26c-1.76-2.56-4.15-4.69-7.01-6.12l-1.71 6.86-1.43-1.07-2.57-1.93-2.57 1.93-1.43 1.07-1.71-6.86c-2.86 1.43-5.25 3.56-7.01 6.12-2.09 3.04-3.28 6.7-3.28 10.57v14.17h6 20 4v-4-4-3c0-.55.45-1 1-1h1v-2.17c0-3.87-1.19-7.53-3.28-10.57z" fill="#75b1f2"/></g><g><path d="m23.71 31.14-1.71 6.86-1.43-1.07-2.57-1.93-2.57 1.93-1.43 1.07-1.71-6.86c.54-.27 1.1-.52 1.68-.74.1-.04.2-.09.29-.14l3.74 3.74 3.74-3.74c.09.05.19.1.29.14.58.22 1.14.47 1.68.74z" fill="#5d9cec"/></g><g><path d="m22 48v7c0 .55-.45 1-1 1h-6c-.55 0-1-.45-1-1v-7z" fill="#e6e9ed"/></g><g><path d="m22 45v3h-8v-3c0-.55.45-1 1-1h2 2 2c.55 0 1 .45 1 1z" fill="#b4dd7f"/></g><g><path d="m62 46v4h-13-3v-4z" fill="#ffc729"/></g><g><path d="m49 54h13v4h-13z" fill="#ffc729"/></g><g><path d="m32 58h17v4h-17z" fill="#ffc729"/></g><g><path d="m49 50v4h-17v-3c0-.55.45-1 1-1h1 12z" fill="#ffc729"/></g><g><path d="m49 58h13v4h-13z" fill="#fcd770"/></g><g><path d="m49 50h13v4h-13z" fill="#fcd770"/></g><g><path d="m62 43v3h-16v-3c0-.55.45-1 1-1h14c.55 0 1 .45 1 1z" fill="#fcd770"/></g><g><path d="m32 54h17v4h-17z" fill="#fcd770"/></g><g><path d="m62 21v6h-1.93c-1.78 0-2.67 2.15-1.41 3.41l1.36 1.37-4.24 4.24-1.37-1.36c-1.26-1.26-3.41-.37-3.41 1.41v1.93h-6v-1.93c0-1.78-2.15-2.67-3.41-1.41l-1.37 1.36-4.24-4.24 1.36-1.37c1.26-1.26.37-3.41-1.41-3.41h-1.93v-6h1.93c1.78 0 2.67-2.15 1.41-3.41l-1.36-1.37 4.24-4.24 1.37 1.36c1.26 1.26 3.41.37 3.41-1.41v-1.93h6v1.93c0 1.78 2.15 2.67 3.41 1.41l1.37-1.36 4.24 4.24-1.36 1.37c-1.26 1.26-.37 3.41 1.41 3.41z" fill="#ffc729"/></g><g><circle cx="48" cy="24" fill="#fcd770" r="8"/></g><g><path d="m28 16c1.1 0 2 .9 2 2 0 .55-.22 1.05-.59 1.41-.36.37-.86.59-1.41.59h-2.25c.16-.64.25-1.31.25-2v-2z" fill="#f0d0b4"/></g><g><path d="m26 16v2c0 .69-.09 1.36-.25 2-.71 2.77-2.86 4.95-5.61 5.71-.68.19-1.4.29-2.14.29s-1.46-.1-2.14-.29c-1.35-.37-2.56-1.09-3.52-2.05-.99-1-1.72-2.25-2.09-3.66-.16-.64-.25-1.31-.25-2v-2-2c0-.63.3-1.22.8-1.6l3.2-2.4h9l2.41 2.41c.38.38.59.89.59 1.42z" fill="#f0d0b4"/></g><g><path d="m21.74 30.26-3.74 3.74-3.74-3.74c.49-.29.84-.78.96-1.34l.64-3.21c.68.19 1.4.29 2.14.29s1.46-.1 2.14-.29l.64 3.21c.12.56.47 1.05.96 1.34z" fill="#f0d0b4"/></g><g><path d="m10.25 20h-2.25c-.55 0-1.05-.22-1.41-.59-.37-.36-.59-.86-.59-1.41 0-1.1.9-2 2-2h2v2c0 .69.09 1.36.25 2z" fill="#f0d0b4"/></g></g><g><circle cx="14" cy="16" r="1"/><circle cx="22" cy="16" r="1"/><path d="m22.121 21.293.586-.586-1.414-1.414-.586.586c-1.446 1.446-3.968 1.446-5.414 0l-.586-.586-1.414 1.414.586.586c1.1 1.101 2.564 1.707 4.121 1.707s3.021-.606 4.121-1.707z"/><path d="m18.5 8.379h2v4.243h-2z" transform="matrix(.707 -.707 .707 .707 -1.713 16.864)"/><path d="m17 51h2v2h-2z"/><path d="m61 41h-14c-1.103 0-2 .897-2 2v2 4h-10v-1.172c0-8.083-5.069-15.464-12.614-18.366-.322-.124-.554-.399-.622-.737l-.471-2.357c2.412-.953 4.311-2.916 5.182-5.367h1.525c1.654 0 3-1.346 3-3 0-1.192-.704-2.215-1.713-2.698l1.309-3.926c.268-.806.404-1.645.404-2.494 0-4.347-3.536-7.883-7.883-7.883h-5.117c-3.285 0-6.429 1.497-8.506 4.025-2.52.255-4.494 2.389-4.494 4.975 0 1.463.346 2.928 1 4.236l.571 1.142c-.931.51-1.571 1.488-1.571 2.622 0 1.654 1.346 3 3 3h1.525c.871 2.451 2.77 4.414 5.182 5.367l-.471 2.358c-.067.337-.3.613-.622.737-7.545 2.902-12.614 10.283-12.614 18.366v15.172h62v-5-1-14c0-1.103-.897-2-2-2zm0 12h-11v-2h11zm-13-2v2h-15v-2h13zm-15 4h15v2h-15zm0 4h15v2h-15zm28-10h-11-3v-2h14zm0-6v2h-14v-2zm-39.999 12h-6.001v-6h6.001zm-6.001-8v-2h6v2zm2.802-4-1.257-5.659 1.455-1.091 1.455 1.091-1.257 5.659zm-.753-8.537-2.444 1.833-1.148-4.592c.193-.086.386-.171.583-.251zm4.346 1.833-2.444-1.833 3.01-3.01c.196.08.39.164.583.251zm6.605-17.296h-1.059c.037-.329.059-.662.059-1v-1h1c.551 0 1 .449 1 1s-.449 1-1 1zm-20 0c-.551 0-1-.449-1-1s.449-1 1-1h1v1c0 .338.022.671.059 1zm3-1v-4c0-.313.149-.612.4-.8l2.506-1.879 2.387 2.387 1.414-1.414-3.613-3.614-3.895 2.92c-.751.564-1.199 1.461-1.199 2.4v1h-.382l-.829-1.658c-.516-1.032-.789-2.188-.789-3.342 0-1.654 1.346-3 3-3h.5l.3-.4c1.691-2.254 4.382-3.6 7.2-3.6h5.117c3.244 0 5.883 2.639 5.883 5.883 0 .634-.102 1.26-.302 1.86l-1.419 4.257h-.279v-1.171c0-.801-.312-1.555-.879-2.122l-3.414-3.414-1.414 1.414 3.414 3.414c.189.189.293.441.293.708v4.171c0 3.86-3.14 7-7 7s-7-3.14-7-7zm7 9c.463 0 .914-.046 1.358-.114l.446 2.23c.085.426.274.808.518 1.148l-2.322 2.322-2.321-2.321c.243-.34.432-.721.518-1.147l.446-2.231c.443.067.894.113 1.357.113zm-15 20.828c0-6.247 3.376-12.02 8.633-15.173l1.762 7.049 1.394-1.045.965 4.341h-.754c-1.103 0-2 .897-2 2v10c0 1.103.897 2 2 2h6c1.103 0 2-.897 2-2v-10c0-1.103-.897-2-2-2h-.754l.965-4.342 1.394 1.045 1.762-7.049c5.257 3.154 8.633 8.927 8.633 15.174v1.172c-1.103 0-2 .897-2 2v10h-2v-16.586c0-.635.258-1.258.707-1.707l-1.414-1.414c-.834.833-1.293 1.942-1.293 3.121v16.586h-18v-16.586c0-1.179-.459-2.288-1.293-3.121l-1.414 1.414c.449.449.707 1.072.707 1.707v16.586h-4zm58 13.172h-11v-2h11zm-11-4v-2h11v2z"/><path d="m43 5h2v2h-2z"/><path d="m47 5h2v2h-2z"/><path d="m51 5h2v2h-2z"/><path d="m60.071 20c-.62 0-.864-.473-.924-.617-.06-.145-.222-.651.217-1.09l2.071-2.071-5.657-5.657-2.071 2.071c-.439.439-.945.276-1.09.217-.144-.06-.617-.304-.617-.924v-2.929h-8v2.929c0 .62-.473.864-.617.924-.145.059-.651.221-1.09-.217l-2.071-2.071-5.657 5.657 2.071 2.071c.438.438.277.945.217 1.09-.06.144-.304.617-.924.617h-2.929v8h2.929c.62 0 .864.473.924.617.06.145.222.651-.217 1.09l-2.071 2.071 5.657 5.657 2.071-2.071c.439-.439.945-.276 1.09-.217.144.06.617.304.617.924v2.929h8v-2.929c0-.62.473-.864.617-.924s.651-.223 1.09.217l2.071 2.071 5.657-5.657-2.071-2.071c-.438-.438-.277-.945-.217-1.09.06-.144.304-.617.924-.617h2.929v-8zm.929 6h-.929c-1.237 0-2.299.709-2.772 1.852-.473 1.142-.224 2.395.65 3.269l.657.657-2.829 2.829-.657-.657c-.875-.875-2.127-1.125-3.269-.65-1.142.472-1.851 1.534-1.851 2.771v.929h-4v-.929c0-1.237-.709-2.299-1.852-2.772-1.142-.473-2.395-.224-3.269.65l-.657.657-2.829-2.829.657-.657c.875-.874 1.124-2.127.65-3.269-.472-1.142-1.534-1.851-2.771-1.851h-.929v-4h.929c1.237 0 2.299-.709 2.772-1.852.473-1.142.224-2.395-.65-3.269l-.657-.657 2.829-2.829.657.657c.874.874 2.125 1.124 3.269.65 1.142-.472 1.851-1.534 1.851-2.771v-.929h4v.929c0 1.237.709 2.299 1.852 2.772 1.143.475 2.395.225 3.269-.65l.657-.657 2.829 2.829-.657.657c-.875.874-1.124 2.127-.65 3.269.472 1.142 1.534 1.851 2.771 1.851h.929z"/><path d="m48 15c-4.962 0-9 4.038-9 9s4.038 9 9 9 9-4.038 9-9-4.038-9-9-9zm-7 9c0-3.519 2.613-6.432 6-6.92v1.92h-2v3c0 1.654 1.346 3 3 3 .551 0 1 .449 1 1v1h-1c-.551 0-1-.449-1-1v-1h-2v1c0 1.302.839 2.402 2 2.816v2.104c-3.387-.488-6-3.401-6-6.92zm8 6.92v-1.92h2v-3c0-1.654-1.346-3-3-3-.551 0-1-.449-1-1v-1h1c.551 0 1 .449 1 1v1h2v-1c0-1.302-.839-2.402-2-2.816v-2.104c3.387.488 6 3.401 6 6.92s-2.613 6.432-6 6.92z"/></g></g></svg>